PathFileType	4	(X/Y/Z)	s02c0402.trc
DataRate	CameraRate	NumFrames	NumMarkers	Units	OrigDataRate	OrigDataStartFrame	OrigNumFrames
200	200	6	50	mm	200	1750	2000
Frame#	Time	racr			lacr			c7			jug			rlel			rdr			llel			ldr			s2			lic			ric			lasi			rasi			rpsi			lpsi			rgt			lgt			rth1			rth2			rth3			rth4			rlfc			rmfc			rsh1			rsh2			rsh3			rsh4			rlmal			rmmal			rtoe			rmt5			rmt1			lth1			lth2			lth4			lth3			llfc			lmfc			lsh1			lsh2			lsh3			lsh4			llmal			lmmal			lcal			ltoe			lmt5			SBIKE			LBIKE			RBIKE			
		X1	Y1	Z1	X2	Y2	Z2	X3	Y3	Z3	X4	Y4	Z4	X5	Y5	Z5	X6	Y6	Z6	X7	Y7	Z7	X8	Y8	Z8	X9	Y9	Z9	X10	Y10	Z10	X11	Y11	Z11	X12	Y12	Z12	X13	Y13	Z13	X14	Y14	Z14	X15	Y15	Z15	X16	Y16	Z16	X17	Y17	Z17	X18	Y18	Z18	X19	Y19	Z19	X20	Y20	Z20	X21	Y21	Z21	X22	Y22	Z22	X23	Y23	Z23	X24	Y24	Z24	X25	Y25	Z25	X26	Y26	Z26	X27	Y27	Z27	X28	Y28	Z28	X29	Y29	Z29	X30	Y30	Z30	X31	Y31	Z31	X32	Y32	Z32	X33	Y33	Z33	X34	Y34	Z34	X35	Y35	Z35	X36	Y36	Z36	X37	Y37	Z37	X38	Y38	Z38	X39	Y39	Z39	X40	Y40	Z40	X41	Y41	Z41	X42	Y42	Z42	X43	Y43	Z43	X44	Y44	Z44	X45	Y45	Z45	X46	Y46	Z46	X47	Y47	Z47	X48	Y48	Z48	X49	Y49	Z49	X50	Y50	Z50	
1750	8.7500	691.746668	1203.888779	-171.939542	709.539644	1142.915650	-544.469105	728.757602	1241.981032	-378.694318	0.000000	0.000000	-0.000000	562.352590	992.233155	-56.833562	684.853514	864.178413	-137.845623	547.128747	962.001423	-686.645990	673.716081	869.675516	-547.907540	149.159139	1145.191631	-371.013800	310.262967	1113.730720	-504.744858	292.257151	1161.454800	-213.307197	350.641231	1081.533968	-468.773059	342.154843	1122.639407	-231.986330	187.631665	1183.283977	-321.872473	199.367076	1174.905210	-409.754637	263.884609	1089.561670	-165.519246	250.848201	1035.321707	-519.956685	343.892650	1042.315870	-153.107973	424.726100	1005.860437	-147.998581	475.234197	947.180902	-111.471377	444.038722	1022.227549	-176.117084	554.161444	824.181560	-126.728586	547.212634	797.944581	-234.935776	480.759185	737.009438	-113.396460	420.707823	672.881467	-133.461017	340.344864	643.879932	-133.712962	434.379809	661.907865	-167.335410	236.053392	587.277305	-143.985547	265.829339	593.763969	-222.805452	282.031486	362.079474	-191.764471	220.916025	453.983476	-134.454439	245.548637	435.704396	-240.577202	336.384264	920.533703	-533.164945	388.768161	851.218310	-525.315990	419.929495	865.181541	-512.290796	398.305571	763.320900	-521.311382	434.510815	672.518494	-496.338841	432.869841	645.074644	-397.493906	407.473560	570.010741	-516.504854	408.051521	485.412985	-499.182853	362.383903	406.862996	-497.366340	425.902644	484.862784	-462.309672	319.203454	311.327781	-481.920507	335.109113	307.345801	-405.215624	245.741746	280.287679	-441.516932	517.052347	177.896731	-443.466919	409.344514	191.848353	-504.273226	-164.976632	856.901993	-318.082715	32.591627	82.275149	-515.245450	32.812569	82.306235	-115.143124	
1751	8.7550	691.222431	1205.077136	-170.342979	710.408237	1143.874894	-543.068602	728.800411	1242.933108	-376.711907	0.000000	0.000000	-0.000000	562.745956	992.270955	-55.303408	684.449127	863.988394	-138.296252	548.160254	963.558652	-686.671531	673.990762	869.640699	-548.374602	150.146385	1143.591526	-373.249378	311.471822	1111.751401	-504.601612	291.773404	1160.504939	-213.600093	351.546820	1079.280843	-468.128490	342.217361	1122.214634	-231.936693	188.244239	1181.482197	-323.364981	200.018067	1173.302801	-410.909008	264.070786	1089.555870	-165.724695	251.113358	1032.892944	-520.084833	344.882970	1044.229482	-153.179298	426.662764	1009.865940	-148.704276	480.023287	952.762120	-113.549016	445.182860	1026.387221	-177.423872	561.324343	831.087034	-128.254176	553.759663	805.855539	-238.111970	488.604488	743.541997	-115.103388	428.274790	679.703019	-135.130993	347.868278	650.899427	-135.017289	441.667471	668.821938	-169.204025	243.040894	594.721465	-144.820740	271.673146	601.025009	-224.417762	291.338071	370.023567	-192.026519	229.659829	461.452200	-134.928936	253.591486	442.997876	-241.178613	334.055473	916.319736	-533.458511	384.774168	845.866980	-525.515048	416.266392	859.098092	-512.414153	392.109662	757.729649	-521.494289	426.329519	666.567068	-496.834080	424.122766	639.278095	-397.977807	398.961223	564.615101	-517.121744	399.968940	480.058734	-499.969866	354.507621	401.315828	-497.798037	417.916529	479.535938	-462.937084	312.347933	305.464778	-482.155684	328.184601	301.517930	-405.415915	238.881660	275.497139	-441.526105	508.855120	169.606357	-443.272988	401.339894	184.850027	-504.163516	-164.953802	857.678633	-315.631612	32.611218	82.241969	-515.261535	32.834370	82.295712	-115.131996	
1752	8.7600	690.628297	1206.049839	-168.725639	711.286093	1144.865937	-541.554110	728.867059	1243.743895	-374.690518	0.000000	0.000000	-0.000000	562.309009	992.529734	-53.092686	684.420136	863.934519	-138.377414	549.228873	965.156822	-686.683633	674.320500	869.581098	-548.963671	150.215156	1143.472074	-372.436873	312.691230	1109.727793	-504.516398	291.260973	1159.623027	-213.913573	352.374255	1077.273447	-467.696604	342.339578	1121.697278	-231.848225	188.902154	1179.701746	-324.831422	200.272119	1171.639119	-412.594735	264.219296	1089.400064	-165.882243	251.148276	1030.767534	-519.755800	345.590007	1045.972556	-153.281766	428.206222	1013.727940	-149.532819	483.843246	957.781805	-115.810123	446.065960	1030.446948	-178.514136	567.964231	837.743271	-129.722853	560.391459	812.784143	-239.995145	496.235810	750.096570	-116.911456	435.750930	686.540992	-136.777779	354.945092	657.662859	-136.217808	448.613824	675.588226	-171.234618	250.102596	601.687321	-145.751229	279.203516	608.359622	-224.863940	301.121807	377.587002	-192.404116	238.494058	468.426473	-135.506619	262.623393	449.531423	-242.139171	331.426586	912.732953	-533.898292	380.450098	840.903978	-526.479090	412.343426	853.698007	-512.900648	385.894349	752.765970	-521.729214	418.267252	661.315709	-497.299813	415.644555	634.415198	-398.560857	390.474216	559.755887	-517.930225	391.853533	475.318106	-500.699282	346.569795	396.431557	-498.295210	409.964253	474.751160	-463.821215	305.244608	300.275425	-482.413122	321.025578	296.301349	-405.636043	231.745083	271.460345	-441.600867	500.167949	161.667989	-443.168286	392.923060	178.449302	-504.018926	-165.037390	857.639841	-315.689179	32.608140	82.225499	-515.261314	32.331367	82.735644	-115.205333	
1753	8.7650	690.007887	1206.934128	-166.899987	712.015894	1145.867946	-540.391737	728.936238	1244.357921	-372.575890	0.000000	0.000000	-0.000000	562.770244	992.468925	-51.779936	684.330595	863.985168	-138.241838	550.356778	966.754076	-686.672943	674.599096	869.477480	-549.531297	150.762026	1142.370064	-373.267919	313.889329	1107.861605	-504.300716	290.837815	1158.890507	-214.108286	353.166630	1075.331196	-467.026445	342.541879	1121.359995	-231.787833	189.503940	1177.920302	-326.223769	201.223758	1170.059074	-412.833733	264.419251	1089.092341	-165.971385	251.093721	1028.918722	-519.686994	346.227022	1047.634187	-153.630131	429.508757	1017.355929	-150.619930	486.835457	962.976914	-117.196056	446.703795	1034.263114	-180.033977	574.561040	844.989833	-131.998097	566.723155	819.722072	-242.047286	503.502720	756.722615	-118.788018	442.903413	693.094390	-138.618136	362.226197	664.078729	-137.520517	455.950411	682.324390	-172.866478	257.287221	608.084506	-146.667282	286.716941	614.628699	-225.186656	311.795308	385.501231	-191.741074	247.649581	474.776424	-136.072237	271.375676	455.939173	-241.902979	328.640363	909.750305	-534.314107	376.194977	837.022648	-526.613692	408.301355	848.920600	-513.493713	379.435434	748.419601	-522.443081	410.250597	656.852262	-497.946763	407.226874	629.902834	-399.979020	382.174102	555.546502	-518.610977	383.799462	471.026800	-501.449917	338.627974	392.119801	-498.806832	402.090664	470.541157	-464.582728	297.928885	295.667602	-482.694934	313.668855	291.681359	-405.878659	224.375947	268.100196	-441.670614	491.213150	154.285395	-442.964413	384.197683	172.560749	-503.869180	-165.067974	857.640492	-315.722024	32.596803	82.199868	-515.278891	32.357430	82.780187	-115.256328	
1754	8.7700	689.397410	1207.624496	-165.128931	712.957097	1146.775475	-538.666617	729.023041	1244.814106	-370.461709	0.000000	0.000000	-0.000000	563.117881	992.222857	-50.575756	684.239168	864.059978	-138.092224	551.524761	968.362214	-686.644510	674.939880	869.382116	-549.990835	151.665577	1140.730255	-375.172936	314.931831	1106.244980	-504.078654	290.433847	1158.053618	-214.302761	353.642541	1073.158702	-466.313021	342.819692	1121.171779	-231.846572	190.159239	1176.317983	-327.534075	201.841400	1168.714818	-414.021710	264.690951	1088.819840	-166.037266	250.926202	1027.374180	-519.639608	346.735235	1049.251526	-154.371454	430.726680	1020.896956	-151.827174	489.391039	968.072741	-118.738971	447.323935	1038.078721	-181.668928	579.424322	851.399550	-133.299398	572.663709	826.580164	-244.312549	510.531498	763.167826	-120.731332	450.084846	699.543600	-140.329512	369.465269	670.327551	-138.890963	462.628704	688.701453	-174.920261	264.598862	613.757668	-147.533262	293.113195	620.671171	-226.495056	322.106082	391.892650	-192.565832	257.002123	480.556459	-136.516201	280.633186	461.942223	-242.047552	325.824044	907.271409	-534.642687	371.835002	833.679480	-527.156855	404.239950	844.762496	-514.127529	373.252544	744.896820	-523.045485	402.394808	652.989379	-498.642157	399.571755	626.126351	-400.669888	374.075660	551.849932	-519.284472	375.771032	467.212534	-502.087936	330.681852	388.276881	-499.281102	394.224122	466.852156	-465.392956	290.524459	291.695568	-482.966986	306.183978	287.755489	-406.018881	216.829064	265.375278	-441.693908	481.863402	147.490591	-442.913523	375.171594	167.351027	-503.805264	-165.098866	857.588264	-315.810994	32.582370	82.153582	-515.308116	32.811067	82.288246	-115.154335	
1755	8.7750	688.923439	1207.931332	-163.569276	714.038061	1147.825250	-537.454185	729.144618	1245.042583	-368.231807	0.000000	0.000000	-0.000000	563.359959	991.876137	-49.258157	684.048987	864.216097	-137.698036	552.757877	969.988429	-686.554057	675.339818	869.322810	-550.429158	152.177750	1139.578204	-376.185533	315.908241	1105.225500	-503.737861	289.573991	1156.866988	-215.319362	354.211006	1071.630598	-465.602032	343.977315	1121.766600	-230.603415	187.765850	1178.045145	-327.945881	202.259656	1167.561971	-415.452649	265.054597	1088.700851	-166.033484	250.853929	1026.281793	-519.925955	347.216760	1051.004233	-155.554513	431.819390	1024.457819	-153.003896	491.757101	972.909730	-120.280259	448.098278	1042.268286	-182.810289	585.787240	857.689406	-136.240959	578.280567	833.580071	-246.581616	517.280492	769.606947	-122.749058	457.111533	705.553168	-141.957992	376.637182	675.884872	-140.128886	469.559570	694.777072	-176.592955	272.017487	618.719232	-148.336866	300.079984	625.837747	-227.329779	332.845467	398.009147	-192.807620	266.495992	485.715079	-136.882295	290.200571	467.461724	-242.420026	323.020987	905.299845	-535.031250	367.552612	830.795083	-527.726617	400.251707	841.170243	-514.754430	367.301839	741.986525	-523.784843	394.709118	649.641537	-499.478538	392.272026	622.691221	-401.423696	366.179251	548.489998	-520.007773	367.901816	463.905883	-502.845511	322.706515	384.907404	-499.729673	386.444428	463.420814	-466.131075	282.872972	288.394958	-483.219293	298.591921	284.462558	-406.181444	209.107898	263.353974	-441.785380	472.246647	141.207485	-442.724689	365.904649	162.643968	-503.702296	-165.150184	856.803580	-318.078171	32.576925	82.137008	-515.309460	32.797654	82.288116	-115.146774	
